<svg xmlns="http://www.w3.org/2000/svg" width="80" height="80" viewBox="0 0 80 80" fill="none"><g clip-path="url(#clip0_3185_80927)"><path d="M20.375 52.3752H18.375C16.8835 52.3752 15.5159 51.5454 14.8271 50.2224C14.1383 48.8995 14.2428 47.3032 15.0981 46.0813L43.0981 6.0813C44.0594 4.7081 45.7681 4.0972 47.3767 4.5142C46.4761 4.7473 45.6584 5.2809 45.0981 6.0813L17.0981 46.0813C16.2428 47.3032 16.1383 48.8995 16.8271 50.2224C17.5159 51.5454 18.8835 52.3752 20.375 52.3752ZM39.1725 76.1901C37.5073 75.6653 36.375 74.1211 36.375 72.3752V52.3752H34.375V72.3752C34.375 74.1211 35.5073 75.6653 37.1725 76.1901C37.9058 76.4213 38.6647 76.4195 39.3735 76.2361C39.3066 76.2187 39.2389 76.211 39.1725 76.1901Z" stroke="#911FFF" stroke-width="0.75" stroke-linecap="round" stroke-linejoin="round"></path><path d="M14.8271 50.2224C14.1383 48.8995 14.2428 47.3032 15.0981 46.0813L43.0981 6.08134C43.6584 5.28094 44.4761 4.74734 45.3767 4.51424C43.7681 4.09714 42.0594 4.70804 41.0981 6.08134L13.0981 46.0813C12.2428 47.3032 12.1383 48.8995 12.8271 50.2224C13.5159 51.5454 14.8835 52.3752 16.375 52.3752H18.375C16.8835 52.3752 15.5159 51.5454 14.8271 50.2224Z" stroke="#911FFF" stroke-width="0.75" stroke-linecap="round" stroke-linejoin="round"></path><path d="M34.375 72.3752V52.3752H32.375V72.3752C32.375 74.1211 33.5073 75.6653 35.1725 76.1901C35.9058 76.4213 36.6647 76.4195 37.3735 76.2361C37.3066 76.2188 37.239 76.2111 37.1725 76.1901C35.5073 75.6653 34.375 74.1211 34.375 72.3752Z" stroke="#911FFF" stroke-width="0.75" stroke-linecap="round" stroke-linejoin="round"></path><path d="M12.8271 50.2224C12.1383 48.8995 12.2428 47.3032 13.0981 46.0813L41.0981 6.08134C41.6584 5.28094 42.4761 4.74734 43.3767 4.51424C41.7681 4.09714 40.0594 4.70804 39.0981 6.08134L11.0981 46.0813C10.2428 47.3032 10.1383 48.8995 10.8271 50.2224C11.5159 51.5454 12.8835 52.3752 14.375 52.3752H16.375C14.8835 52.3752 13.5159 51.5454 12.8271 50.2224Z" stroke="#911FFF" stroke-width="0.75" stroke-linecap="round" stroke-linejoin="round"></path><path d="M32.375 72.3752V52.3752H30.375V72.3752C30.375 74.1211 31.5073 75.6653 33.1725 76.1901C33.9058 76.4213 34.6647 76.4195 35.3735 76.2361C35.3066 76.2188 35.239 76.2111 35.1725 76.1901C33.5073 75.6653 32.375 74.1211 32.375 72.3752Z" stroke="#911FFF" stroke-width="0.75" stroke-linecap="round" stroke-linejoin="round"></path><path d="M10.8271 50.2224C10.1383 48.8995 10.2428 47.3032 11.0981 46.0813L39.0981 6.08134C39.6584 5.28094 40.4761 4.74734 41.3767 4.51424C39.7681 4.09714 38.0594 4.70804 37.0981 6.08134L9.09809 46.0813C8.24279 47.3032 8.13829 48.8995 8.82709 50.2224C9.51589 51.5454 10.8835 52.3752 12.375 52.3752H14.375C12.8835 52.3752 11.5159 51.5454 10.8271 50.2224Z" stroke="#911FFF" stroke-width="0.75" stroke-linecap="round" stroke-linejoin="round"></path><path d="M30.375 72.3752V52.3752H28.375V72.3752C28.375 74.1211 29.5073 75.6653 31.1725 76.1901C31.9058 76.4213 32.6647 76.4195 33.3735 76.2361C33.3066 76.2188 33.239 76.2111 33.1725 76.1901C31.5073 75.6653 30.375 74.1211 30.375 72.3752Z" stroke="#911FFF" stroke-width="0.75" stroke-linecap="round" stroke-linejoin="round"></path><path d="M49.5776 4.56029C51.2427 5.08519 52.375 6.62939 52.375 8.37529V28.3753H68.375C69.8665 28.3753 71.2341 29.2051 71.9229 30.528C72.6117 31.851 72.5073 33.4473 71.652 34.6691L43.6519 74.6691C42.6507 76.0994 40.8376 76.7151 39.1725 76.1902C37.5073 75.6654 36.375 74.1212 36.375 72.3753V52.3753H20.375C18.8835 52.3753 17.5159 51.5455 16.8271 50.2225C16.1383 48.8996 16.2428 47.3033 17.0981 46.0814L45.0981 6.08139C46.0993 4.65119 47.9125 4.03549 49.5776 4.56029Z" stroke="#911FFF" stroke-width="0.75" stroke-linecap="round" stroke-linejoin="round"></path></g><defs><clipPath id="clip0_3185_80927"><rect width="64.75" height="72.7505" fill="white" transform="translate(8 4)"></rect></clipPath></defs></svg>