<svg xmlns="http://www.w3.org/2000/svg" width="80" height="80" viewBox="0 0 80 80" fill="none"><g clip-path="url(#clip0_3190_81095)"><path d="M12.375 27.7255C12.375 24.9983 12.6025 22.3241 13.0394 19.721C24.6007 19.5642 35.1676 15.3119 43.375 8.35977C43.04 8.07597 42.702 7.79587 42.375 7.50317C34.0361 14.9667 23.0725 19.5578 11.0394 19.721C10.6024 22.3241 10.375 24.9983 10.375 27.7255C10.375 48.625 23.7319 66.4047 42.375 72.9941C42.7114 72.8752 43.0421 72.7448 43.375 72.6187C25.2582 65.7542 12.375 48.248 12.375 27.7255Z" stroke="#911FFF" stroke-width="0.75" stroke-miterlimit="10"></path><path d="M10.375 27.7255C10.375 24.9983 10.6025 22.3241 11.0394 19.721C22.6007 19.5642 33.1676 15.3119 41.375 8.35977C41.04 8.07597 40.702 7.79587 40.375 7.50317C32.0361 14.9667 21.0725 19.5578 9.0394 19.721C8.6024 22.3241 8.375 24.9983 8.375 27.7255C8.375 48.625 21.7319 66.4047 40.375 72.9941C40.7114 72.8752 41.0421 72.7448 41.375 72.6187C23.2582 65.7542 10.375 48.248 10.375 27.7255Z" stroke="#911FFF" stroke-width="0.75" stroke-miterlimit="10"></path><path d="M8.375 27.7255C8.375 24.9983 8.6025 22.3241 9.0394 19.721C20.6007 19.5642 31.1676 15.3119 39.375 8.35977C39.04 8.07597 38.702 7.79587 38.375 7.50317C30.0361 14.9667 19.0725 19.5578 7.0394 19.721C6.6024 22.3241 6.375 24.9983 6.375 27.7255C6.375 48.625 19.7319 66.4047 38.375 72.9941C38.7114 72.8752 39.0421 72.7448 39.375 72.6187C21.2582 65.7542 8.375 48.248 8.375 27.7255Z" stroke="#911FFF" stroke-width="0.75" stroke-miterlimit="10"></path><path d="M6.375 27.7255C6.375 24.9983 6.6025 22.3241 7.0394 19.721C18.6007 19.5642 29.1676 15.3119 37.375 8.35977C37.04 8.07597 36.702 7.79587 36.375 7.50317C28.0361 14.9667 17.0725 19.5578 5.0394 19.721C4.6024 22.3241 4.375 24.9983 4.375 27.7255C4.375 48.625 17.7319 66.4047 36.375 72.9941C36.7114 72.8752 37.0421 72.7448 37.375 72.6187C19.2582 65.7542 6.375 48.248 6.375 27.7255Z" stroke="#911FFF" stroke-width="0.75" stroke-miterlimit="10"></path><path fill-rule="evenodd" clip-rule="evenodd" d="M75.7105 19.7211C63.6775 19.5579 52.7138 14.9668 44.375 7.50342C36.0361 14.9668 25.0725 19.5579 13.0394 19.7211C12.6024 22.3242 12.375 24.9984 12.375 27.7256C12.375 48.6251 25.7319 66.4048 44.375 72.9942C63.018 66.4048 76.375 48.6251 76.375 27.7256C76.375 24.9984 76.1475 22.3242 75.7105 19.7211Z" stroke="#911FFF" stroke-width="0.75" stroke-miterlimit="10"></path><path d="M40.375 51.7251C40.0313 51.7251 39.6992 51.6672 39.375 51.5837C40.0591 51.4076 40.691 51.0663 41.2031 50.5542L57.2031 34.5537C57.959 33.7983 58.375 32.7939 58.375 31.7256C58.375 30.6573 57.959 29.6524 57.2031 28.897C56.6904 28.3846 56.0586 28.0433 55.3749 27.8671C55.6992 27.7835 56.0313 27.7256 56.375 27.7256C57.4434 27.7256 58.4473 28.1416 59.2031 28.897C59.9589 29.6524 60.375 30.6573 60.375 31.7256C60.375 32.7939 59.959 33.7984 59.2031 34.5537L43.2031 50.5542C42.4482 51.3091 41.4438 51.7251 40.375 51.7251Z" stroke="#911FFF" stroke-width="0.75" stroke-miterlimit="10" stroke-linejoin="round"></path><path d="M35.2031 36.897C34.4477 36.1416 33.4433 35.7256 32.375 35.7256C32.0313 35.7256 31.6993 35.7835 31.375 35.8671C32.0588 36.0433 32.6907 36.3846 33.2031 36.897L38.375 42.0689L39.375 41.0689L35.2031 36.897Z" stroke="#911FFF" stroke-width="0.75" stroke-miterlimit="10" stroke-linejoin="round"></path><path d="M55.203 28.8968C55.9589 29.6522 56.3749 30.6571 56.3749 31.7254C56.3749 32.7937 55.9589 33.7982 55.203 34.5535L39.203 50.554C38.9553 50.8017 38.6784 51.0076 38.3823 51.176C38.694 51.3565 39.0257 51.4937 39.3749 51.5835C40.059 51.4074 40.6909 51.0661 41.203 50.554L57.203 34.5535C57.9589 33.7981 58.3749 32.7937 58.3749 31.7254C58.3749 30.6571 57.9589 29.6522 57.203 28.8968C56.6903 28.3844 56.0585 28.0431 55.3748 27.8669C55.0257 27.9569 54.6938 28.094 54.3821 28.2746C54.6782 28.4431 54.955 28.649 55.203 28.8968Z" stroke="#911FFF" stroke-width="0.75" stroke-miterlimit="10" stroke-linejoin="round"></path><path d="M31.203 36.8968L36.3749 42.0687L37.3749 41.0687L33.203 36.8968C32.6906 36.3844 32.0587 36.0431 31.3749 35.8669C31.0258 35.9569 30.6941 36.094 30.3823 36.2746C30.6784 36.4431 30.9552 36.649 31.203 36.8968Z" stroke="#911FFF" stroke-width="0.75" stroke-miterlimit="10" stroke-linejoin="round"></path><path d="M53.2031 34.5537L37.375 50.3823L37.5469 50.5542C37.7956 50.8029 38.0788 50.9999 38.375 51.1722C38.6712 50.9998 38.9544 50.8029 39.2031 50.5542L55.2031 34.5537C55.959 33.7983 56.375 32.7939 56.375 31.7256C56.375 30.6573 55.959 29.6524 55.2031 28.897C54.9542 28.6482 54.671 28.4512 54.3748 28.2788C54.0786 28.4512 53.7955 28.6482 53.5469 28.897L53.3583 29.0856C54.0069 29.8172 54.375 30.7398 54.375 31.7256C54.375 32.7939 53.959 33.7983 53.2031 34.5537Z" stroke="#911FFF" stroke-width="0.75" stroke-miterlimit="10" stroke-linejoin="round"></path><path d="M29.3918 37.0857L34.375 42.0689L35.375 41.0689L31.2031 36.897C30.9543 36.6482 30.6711 36.4512 30.375 36.2788C30.0789 36.4512 29.7957 36.6482 29.5469 36.897C29.4885 36.9554 29.4461 37.0245 29.3918 37.0857Z" stroke="#911FFF" stroke-width="0.75" stroke-miterlimit="10" stroke-linejoin="round"></path><path d="M51.2031 34.5538L36.375 49.3824L37.375 50.3824L53.2031 34.5538C53.959 33.7984 54.375 32.794 54.375 31.7257C54.375 30.7399 54.0069 29.8173 53.3583 29.0857L52.1138 30.3302C52.2784 30.7719 52.375 31.2404 52.375 31.7257C52.375 32.794 51.959 33.7984 51.2031 34.5538Z" stroke="#911FFF" stroke-width="0.75" stroke-miterlimit="10" stroke-linejoin="round"></path><path d="M33.375 41.0689L29.3918 37.0857C29.0626 37.4571 28.8059 37.8747 28.6362 38.3301L32.375 42.0689L33.375 41.0689Z" stroke="#911FFF" stroke-width="0.75" stroke-miterlimit="10" stroke-linejoin="round"></path><path fill-rule="evenodd" clip-rule="evenodd" d="M59.2031 34.5537L43.2031 50.5542C42.4482 51.3091 41.4438 51.7251 40.375 51.7251C39.3062 51.7251 38.3018 51.3091 37.5469 50.5542L29.5469 42.5542C28.791 41.7983 28.375 40.7944 28.375 39.7256C28.375 38.6572 28.791 37.6524 29.5469 36.897C30.3023 36.1416 31.3067 35.7256 32.375 35.7256C33.4433 35.7256 34.4478 36.1416 35.2031 36.897L40.375 42.0689L53.5469 28.897C54.3018 28.1416 55.3067 27.7256 56.375 27.7256C57.4433 27.7256 58.4473 28.1416 59.2031 28.897C59.9589 29.6524 60.375 30.6573 60.375 31.7256C60.375 32.7939 59.959 33.7983 59.2031 34.5537Z" stroke="#911FFF" stroke-width="0.75" stroke-miterlimit="10" stroke-linejoin="round"></path></g><defs><clipPath id="clip0_3190_81095"><rect width="72.75" height="66.3919" fill="white" transform="translate(4 7)"></rect></clipPath></defs></svg>